<svg xmlns="http://www.w3.org/2000/svg" viewBox="0 0 779 798" width="779" height="798" role="img" aria-label="ShapeSoup icon">
  <path d="M 64.0 445.0 L 64.0 453.0 L 65.0 454.0 L 67.0 474.0 L 74.0 504.0 L 90.0 548.0 L 100.0 568.0 L 114.0 591.0 L 127.0 609.0 L 146.0 631.0 L 172.0 655.0 L 207.0 680.0 L 237.0 696.0 L 260.0 705.0 L 262.0 707.0 L 262.0 732.0 L 264.0 736.0 L 269.0 741.0 L 274.0 743.0 L 282.0 743.0 L 303.0 747.0 L 323.0 748.0 L 330.0 750.0 L 343.0 750.0 L 344.0 751.0 L 363.0 751.0 L 364.0 752.0 L 450.0 751.0 L 451.0 750.0 L 473.0 749.0 L 474.0 748.0 L 498.0 746.0 L 512.0 743.0 L 519.0 743.0 L 526.0 740.0 L 532.0 732.0 L 532.0 707.0 L 534.0 705.0 L 553.0 698.0 L 576.0 686.0 L 601.0 670.0 L 618.0 657.0 L 651.0 625.0 L 676.0 593.0 L 690.0 570.0 L 698.0 554.0 L 698.0 552.0 L 702.0 546.0 L 712.0 520.0 L 722.0 483.0 L 725.0 459.0 L 726.0 458.0 L 726.0 451.0 L 727.0 450.0 L 726.0 444.0 L 721.0 438.0 L 711.0 437.0 L 693.0 444.0 L 690.0 444.0 L 680.0 448.0 L 640.0 459.0 L 636.0 459.0 L 627.0 462.0 L 623.0 462.0 L 618.0 464.0 L 588.0 470.0 L 583.0 470.0 L 558.0 475.0 L 552.0 475.0 L 551.0 476.0 L 545.0 476.0 L 544.0 477.0 L 538.0 477.0 L 537.0 478.0 L 512.0 480.0 L 511.0 481.0 L 501.0 481.0 L 500.0 482.0 L 490.0 482.0 L 489.0 483.0 L 459.0 484.0 L 458.0 485.0 L 367.0 486.0 L 366.0 485.0 L 341.0 485.0 L 340.0 484.0 L 323.0 484.0 L 322.0 483.0 L 288.0 481.0 L 287.0 480.0 L 269.0 479.0 L 268.0 478.0 L 261.0 478.0 L 260.0 477.0 L 253.0 477.0 L 252.0 476.0 L 238.0 475.0 L 225.0 472.0 L 219.0 472.0 L 213.0 470.0 L 208.0 470.0 L 177.0 464.0 L 136.0 454.0 L 99.0 442.0 L 96.0 442.0 L 81.0 436.0 L 73.0 436.0 L 69.0 438.0 Z M 552.0 627.0 L 555.0 626.0 L 556.0 629.0 L 553.0 630.0 Z M 219.0 632.0 L 224.0 627.0 L 228.0 625.0 L 234.0 625.0 L 247.0 632.0 L 251.0 636.0 L 252.0 646.0 L 247.0 653.0 L 240.0 656.0 L 234.0 655.0 L 222.0 648.0 L 218.0 642.0 Z M 608.0 622.0 L 611.0 621.0 L 612.0 624.0 L 609.0 625.0 Z M 116.0 543.0 L 119.0 542.0 L 120.0 545.0 L 117.0 546.0 Z M 584.0 494.0 L 588.0 493.0 L 589.0 496.0 L 585.0 497.0 Z M 120.0 491.0 L 124.0 489.0 L 131.0 489.0 L 135.0 491.0 L 140.0 497.0 L 141.0 504.0 L 147.0 523.0 L 162.0 553.0 L 181.0 579.0 L 205.0 602.0 L 207.0 606.0 L 207.0 613.0 L 202.0 620.0 L 195.0 623.0 L 188.0 622.0 L 183.0 618.0 L 162.0 597.0 L 142.0 570.0 L 127.0 542.0 L 118.0 518.0 L 117.0 511.0 L 115.0 507.0 L 115.0 497.0 Z M 548.0 445.0 L 544.0 430.0 L 537.0 416.0 L 528.0 403.0 L 516.0 391.0 L 503.0 382.0 L 486.0 374.0 L 469.0 370.0 L 453.0 369.0 L 452.0 370.0 L 439.0 371.0 L 420.0 377.0 L 401.0 388.0 L 388.0 400.0 L 378.0 413.0 L 370.0 429.0 L 366.0 443.0 L 365.0 458.0 L 374.0 458.0 L 375.0 459.0 L 418.0 459.0 L 419.0 458.0 L 450.0 458.0 L 451.0 457.0 L 482.0 456.0 L 483.0 455.0 L 495.0 455.0 L 496.0 454.0 L 516.0 453.0 L 524.0 451.0 L 548.0 449.0 Z M 79.0 384.0 L 79.0 391.0 L 86.0 398.0 L 96.0 398.0 L 110.0 392.0 L 122.0 389.0 L 133.0 390.0 L 142.0 394.0 L 149.0 400.0 L 163.0 423.0 L 170.0 430.0 L 178.0 436.0 L 196.0 444.0 L 205.0 446.0 L 225.0 446.0 L 238.0 442.0 L 252.0 435.0 L 267.0 434.0 L 276.0 437.0 L 282.0 441.0 L 299.0 460.0 L 308.0 468.0 L 311.0 469.0 L 317.0 468.0 L 321.0 465.0 L 325.0 457.0 L 324.0 439.0 L 318.0 422.0 L 308.0 407.0 L 297.0 397.0 L 290.0 393.0 L 275.0 388.0 L 256.0 388.0 L 245.0 391.0 L 231.0 399.0 L 222.0 402.0 L 206.0 401.0 L 197.0 396.0 L 191.0 390.0 L 181.0 371.0 L 172.0 360.0 L 163.0 353.0 L 147.0 346.0 L 126.0 345.0 L 115.0 348.0 L 105.0 353.0 L 91.0 365.0 Z M 565.0 374.0 L 562.0 389.0 L 563.0 411.0 L 567.0 425.0 L 574.0 438.0 L 580.0 443.0 L 586.0 443.0 L 611.0 438.0 L 665.0 425.0 L 669.0 423.0 L 686.0 419.0 L 692.0 413.0 L 693.0 403.0 L 692.0 399.0 L 688.0 393.0 L 683.0 388.0 L 675.0 384.0 L 665.0 381.0 L 656.0 374.0 L 652.0 369.0 L 649.0 362.0 L 648.0 356.0 L 644.0 349.0 L 635.0 340.0 L 624.0 335.0 L 607.0 334.0 L 592.0 339.0 L 585.0 344.0 L 577.0 352.0 L 571.0 361.0 Z M 713.0 289.0 L 708.0 289.0 L 703.0 292.0 L 698.0 305.0 L 682.0 302.0 L 678.0 304.0 L 674.0 310.0 L 674.0 314.0 L 679.0 321.0 L 691.0 325.0 L 687.0 338.0 L 688.0 345.0 L 694.0 349.0 L 701.0 348.0 L 706.0 344.0 L 706.0 341.0 L 710.0 332.0 L 725.0 335.0 L 728.0 334.0 L 732.0 330.0 L 733.0 326.0 L 732.0 320.0 L 728.0 316.0 L 720.0 314.0 L 717.0 312.0 L 717.0 308.0 L 720.0 302.0 L 720.0 296.0 Z M 71.0 271.0 L 58.0 276.0 L 50.0 284.0 L 46.0 293.0 L 45.0 301.0 L 48.0 313.0 L 54.0 321.0 L 63.0 327.0 L 70.0 329.0 L 78.0 329.0 L 89.0 325.0 L 97.0 318.0 L 102.0 309.0 L 103.0 295.0 L 99.0 285.0 L 92.0 277.0 L 83.0 272.0 Z M 195.0 250.0 L 186.0 266.0 L 181.0 284.0 L 181.0 302.0 L 183.0 312.0 L 189.0 326.0 L 201.0 340.0 L 220.0 350.0 L 237.0 351.0 L 252.0 348.0 L 269.0 339.0 L 279.0 337.0 L 289.0 338.0 L 298.0 342.0 L 307.0 351.0 L 313.0 362.0 L 315.0 372.0 L 320.0 383.0 L 330.0 394.0 L 340.0 399.0 L 352.0 399.0 L 359.0 396.0 L 363.0 392.0 L 396.0 314.0 L 395.0 299.0 L 392.0 294.0 L 386.0 288.0 L 374.0 283.0 L 359.0 283.0 L 330.0 294.0 L 315.0 294.0 L 306.0 290.0 L 294.0 277.0 L 289.0 259.0 L 280.0 244.0 L 272.0 236.0 L 260.0 229.0 L 248.0 226.0 L 236.0 226.0 L 218.0 231.0 L 207.0 238.0 Z M 245.0 340.0 L 248.0 339.0 L 250.0 341.0 L 251.0 345.0 L 247.0 346.0 Z M 228.0 340.0 L 231.0 339.0 L 232.0 342.0 L 229.0 343.0 Z M 283.0 281.0 L 286.0 280.0 L 287.0 283.0 L 284.0 284.0 Z M 497.0 215.0 L 489.0 221.0 L 429.0 313.0 L 427.0 318.0 L 428.0 326.0 L 432.0 331.0 L 442.0 334.0 L 499.0 338.0 L 500.0 339.0 L 510.0 339.0 L 511.0 340.0 L 523.0 340.0 L 524.0 341.0 L 550.0 342.0 L 557.0 336.0 L 558.0 333.0 L 558.0 325.0 L 539.0 283.0 L 527.0 253.0 L 524.0 249.0 L 520.0 237.0 L 517.0 233.0 L 517.0 230.0 L 513.0 221.0 L 505.0 215.0 Z M 449.0 322.0 L 452.0 321.0 L 453.0 324.0 L 450.0 325.0 Z M 629.0 200.0 L 616.0 203.0 L 602.0 213.0 L 596.0 222.0 L 594.0 228.0 L 593.0 246.0 L 598.0 259.0 L 607.0 269.0 L 613.0 273.0 L 621.0 276.0 L 635.0 277.0 L 650.0 272.0 L 661.0 262.0 L 667.0 250.0 L 668.0 231.0 L 664.0 220.0 L 658.0 212.0 L 652.0 207.0 L 639.0 201.0 Z M 635.0 249.0 L 640.0 248.0 L 641.0 251.0 L 636.0 252.0 Z M 193.0 172.0 L 188.0 165.0 L 182.0 162.0 L 171.0 162.0 L 165.0 164.0 L 158.0 168.0 L 150.0 176.0 L 144.0 188.0 L 140.0 204.0 L 132.0 213.0 L 128.0 215.0 L 118.0 215.0 L 100.0 206.0 L 93.0 204.0 L 88.0 204.0 L 80.0 208.0 L 76.0 215.0 L 77.0 224.0 L 82.0 230.0 L 86.0 232.0 L 97.0 233.0 L 115.0 242.0 L 135.0 243.0 L 141.0 241.0 L 149.0 236.0 L 159.0 225.0 L 163.0 215.0 L 164.0 207.0 L 167.0 199.0 L 173.0 193.0 L 179.0 190.0 L 186.0 189.0 L 191.0 185.0 L 193.0 181.0 Z M 345.0 122.0 L 336.0 124.0 L 331.0 127.0 L 328.0 127.0 L 314.0 136.0 L 307.0 143.0 L 299.0 155.0 L 295.0 165.0 L 293.0 175.0 L 293.0 190.0 L 295.0 200.0 L 300.0 212.0 L 306.0 221.0 L 315.0 230.0 L 322.0 235.0 L 335.0 241.0 L 343.0 243.0 L 362.0 243.0 L 373.0 240.0 L 385.0 234.0 L 400.0 220.0 L 408.0 206.0 L 411.0 197.0 L 412.0 174.0 L 409.0 162.0 L 403.0 150.0 L 398.0 145.0 L 396.0 141.0 L 386.0 132.0 L 375.0 126.0 L 366.0 123.0 Z M 325.0 155.0 L 327.0 155.0 L 328.0 158.0 L 333.0 160.0 L 342.0 154.0 L 355.0 152.0 L 366.0 155.0 L 377.0 164.0 L 382.0 174.0 L 383.0 187.0 L 380.0 197.0 L 369.0 209.0 L 360.0 213.0 L 346.0 213.0 L 342.0 211.0 L 339.0 211.0 L 338.0 209.0 L 335.0 208.0 L 328.0 201.0 L 323.0 190.0 L 323.0 175.0 L 329.0 164.0 L 329.0 162.0 L 326.0 162.0 L 324.0 160.0 Z M 642.0 100.0 L 636.0 95.0 L 630.0 95.0 L 626.0 97.0 L 617.0 106.0 L 609.0 121.0 L 603.0 126.0 L 598.0 128.0 L 593.0 128.0 L 587.0 126.0 L 579.0 121.0 L 570.0 118.0 L 558.0 118.0 L 551.0 120.0 L 539.0 129.0 L 528.0 146.0 L 521.0 149.0 L 512.0 148.0 L 505.0 145.0 L 502.0 142.0 L 489.0 138.0 L 482.0 138.0 L 472.0 141.0 L 467.0 144.0 L 457.0 155.0 L 449.0 168.0 L 449.0 176.0 L 454.0 181.0 L 463.0 180.0 L 466.0 177.0 L 472.0 165.0 L 478.0 159.0 L 483.0 157.0 L 490.0 157.0 L 511.0 167.0 L 525.0 167.0 L 532.0 165.0 L 537.0 162.0 L 545.0 154.0 L 551.0 144.0 L 556.0 139.0 L 560.0 137.0 L 569.0 137.0 L 582.0 144.0 L 589.0 146.0 L 607.0 145.0 L 613.0 142.0 L 623.0 133.0 L 633.0 116.0 L 641.0 110.0 Z M 250.0 57.0 L 245.0 55.0 L 240.0 55.0 L 211.0 64.0 L 208.0 64.0 L 202.0 68.0 L 200.0 72.0 L 200.0 81.0 L 204.0 92.0 L 209.0 113.0 L 213.0 118.0 L 217.0 120.0 L 225.0 120.0 L 232.0 117.0 L 255.0 111.0 L 259.0 109.0 L 263.0 104.0 L 264.0 97.0 L 261.0 90.0 L 261.0 86.0 L 258.0 78.0 L 256.0 67.0 L 253.0 60.0 Z M 422.0 45.0 L 417.0 47.0 L 412.0 51.0 L 407.0 62.0 L 407.0 67.0 L 411.0 77.0 L 416.0 82.0 L 424.0 85.0 L 431.0 85.0 L 440.0 81.0 L 445.0 75.0 L 447.0 70.0 L 447.0 59.0 L 444.0 53.0 L 438.0 47.0 L 433.0 45.0 Z" fill="#fd5b60" fill-rule="evenodd"/>
</svg>
